<?xml version="1.0" encoding="utf-8"?>
<!-- Generated by Mocodo 4.3.3 -->
<svg width="684" height="535" viewBox="0 0 684 535" xmlns="http://www.w3.org/2000/svg">
<rect x="0" y="0" width="684" height="535" fill="#FFFFFF" stroke="none" stroke-width="0"/>

<!-- Association AVOIR -->
<g class="page_0_94c8502b diagram_page" visibility="visible">
	<line x1="292" y1="80" x2="419" y2="80" stroke="#000000" stroke-width="1"/>
	<line x1="170" y1="80" x2="419" y2="80" stroke="#000000" stroke-width="1"/>
	<g>
		<path d="M432 54 a14 14 90 0 1 14 14 V80 h-54 V68 a14 14 90 0 1 14 -14" fill="#FFFFFF" stroke="#FFFFFF" stroke-width="0"/>
		<path d="M446 80 v12 a14 14 90 0 1 -14 14 H406 a14 14 90 0 1 -14 -14 V80 H54" fill="#FFFFFF" stroke="#FFFFFF" stroke-width="0"/>
		<rect x="392" y="54" width="54" height="52" fill="none" rx="14" stroke="#000000" stroke-width="1.5"/>
		<line x1="392" y1="80" x2="446" y2="80" stroke="#000000" stroke-width="1"/>
		<text x="399" y="72.6" fill="#000000" font-family="Trebuchet MS" font-size="14">AVOIR</text>
	</g>
	<text x="338" y="72" fill="#000000" font-family="Verdana" font-size="12">1,1</text>
	<text x="203" y="97" fill="#000000" font-family="Verdana" font-size="12">0,N</text>
</g>

<!-- Association CONCERNER -->
<g class="page_0_94c8502b diagram_page" visibility="visible">
	<line x1="52" y1="220" x2="292" y2="220" stroke="#000000" stroke-width="1"/>
	<line x1="170" y1="220" x2="292" y2="220" stroke="#000000" stroke-width="1"/>
	<g>
		<path d="M324 194 a14 14 90 0 1 14 14 V220 h-92 V208 a14 14 90 0 1 14 -14" fill="#FFFFFF" stroke="#FFFFFF" stroke-width="0"/>
		<path d="M338 220 v12 a14 14 90 0 1 -14 14 H260 a14 14 90 0 1 -14 -14 V220 H92" fill="#FFFFFF" stroke="#FFFFFF" stroke-width="0"/>
		<rect x="246" y="194" width="92" height="52" fill="none" rx="14" stroke="#000000" stroke-width="1.5"/>
		<line x1="246" y1="220" x2="338" y2="220" stroke="#000000" stroke-width="1"/>
		<text x="253" y="212.6" fill="#000000" font-family="Trebuchet MS" font-size="14">CONCERNER</text>
	</g>
	<text x="100" y="237" fill="#000000" font-family="Verdana" font-size="12">0,N</text>
	<text x="218" y="237" fill="#000000" font-family="Verdana" font-size="12">1,1</text>
</g>

<!-- Association CREER -->
<g class="page_0_94c8502b diagram_page" visibility="visible">
	<line x1="292" y1="80" x2="419" y2="220" stroke="#000000" stroke-width="1"/>
	<line x1="170" y1="220" x2="419" y2="220" stroke="#000000" stroke-width="1"/>
	<g>
		<path d="M433 194 a14 14 90 0 1 14 14 V220 h-56 V208 a14 14 90 0 1 14 -14" fill="#FFFFFF" stroke="#FFFFFF" stroke-width="0"/>
		<path d="M447 220 v12 a14 14 90 0 1 -14 14 H405 a14 14 90 0 1 -14 -14 V220 H56" fill="#FFFFFF" stroke="#FFFFFF" stroke-width="0"/>
		<rect x="391" y="194" width="56" height="52" fill="none" rx="14" stroke="#000000" stroke-width="1.5"/>
		<line x1="391" y1="220" x2="447" y2="220" stroke="#000000" stroke-width="1"/>
		<text x="398" y="212.6" fill="#000000" font-family="Trebuchet MS" font-size="14">CREER</text>
	</g>
	<text x="338" y="123.78" fill="#000000" font-family="Verdana" font-size="12" onmouseover="show_94c8502b(evt,'createur')" onmouseout="hide_94c8502b(evt)" style="cursor: pointer;">0,N</text>
	<text x="218" y="237" fill="#000000" font-family="Verdana" font-size="12">1,1</text>
</g>

<!-- Association TRAITER -->
<g class="page_0_94c8502b diagram_page" visibility="visible">
	<line x1="292" y1="80" x2="514" y2="220" stroke="#000000" stroke-width="1"/>
	<line x1="170" y1="220" x2="514" y2="220" stroke="#000000" stroke-width="1"/>
	<g>
		<path d="M535 194 a14 14 90 0 1 14 14 V220 h-70 V208 a14 14 90 0 1 14 -14" fill="#FFFFFF" stroke="#FFFFFF" stroke-width="0"/>
		<path d="M549 220 v12 a14 14 90 0 1 -14 14 H493 a14 14 90 0 1 -14 -14 V220 H70" fill="#FFFFFF" stroke="#FFFFFF" stroke-width="0"/>
		<rect x="479" y="194" width="70" height="52" fill="none" rx="14" stroke="#000000" stroke-width="1.5"/>
		<line x1="479" y1="220" x2="549" y2="220" stroke="#000000" stroke-width="1"/>
		<text x="487" y="212.6" fill="#000000" font-family="Trebuchet MS" font-size="14">TRAITER</text>
	</g>
	<text x="338" y="102.72" fill="#000000" font-family="Verdana" font-size="12" onmouseover="show_94c8502b(evt,'agent')" onmouseout="hide_94c8502b(evt)" style="cursor: pointer;">0,N</text>
	<text x="218" y="237" fill="#000000" font-family="Verdana" font-size="12">0,1</text>
</g>

<!-- Association SPECIALISER -->
<g class="page_0_94c8502b diagram_page" visibility="visible">
	<line x1="292" y1="80" x2="628" y2="220" stroke="#000000" stroke-width="1"/>
	<line x1="52" y1="220" x2="628" y2="220" stroke="#000000" stroke-width="1"/>
	<g>
		<path d="M661 194 a14 14 90 0 1 14 14 V220 h-94 V208 a14 14 90 0 1 14 -14" fill="#FFFFFF" stroke="#FFFFFF" stroke-width="0"/>
		<path d="M675 220 v12 a14 14 90 0 1 -14 14 H595 a14 14 90 0 1 -14 -14 V220 H94" fill="#FFFFFF" stroke="#FFFFFF" stroke-width="0"/>
		<rect x="581" y="194" width="94" height="52" fill="none" rx="14" stroke="#000000" stroke-width="1.5"/>
		<line x1="581" y1="220" x2="675" y2="220" stroke="#000000" stroke-width="1"/>
		<text x="589" y="212.6" fill="#000000" font-family="Trebuchet MS" font-size="14">SPECIALISER</text>
	</g>
	<text x="338" y="92.35" fill="#000000" font-family="Verdana" font-size="12">0,N</text>
	<text x="100" y="237" fill="#000000" font-family="Verdana" font-size="12">0,N</text>
</g>

<!-- Association DISCUTER -->
<g class="page_0_94c8502b diagram_page" visibility="visible">
	<line x1="292" y1="360" x2="419" y2="360" stroke="#000000" stroke-width="1"/>
	<path d="M170 220 C146.87 249.43 229.87 296.09 419 360" fill="none" stroke="#000000" stroke-width="1"/>
	<g>
		<path d="M444 334 a14 14 90 0 1 14 14 V360 h-78 V348 a14 14 90 0 1 14 -14" fill="#FFFFFF" stroke="#FFFFFF" stroke-width="0"/>
		<path d="M458 360 v12 a14 14 90 0 1 -14 14 H394 a14 14 90 0 1 -14 -14 V360 H78" fill="#FFFFFF" stroke="#FFFFFF" stroke-width="0"/>
		<rect x="380" y="334" width="78" height="52" fill="none" rx="14" stroke="#000000" stroke-width="1.5"/>
		<line x1="380" y1="360" x2="458" y2="360" stroke="#000000" stroke-width="1"/>
		<text x="388" y="352.6" fill="#000000" font-family="Trebuchet MS" font-size="14">DISCUTER</text>
	</g>
	<text x="353" y="377" fill="#000000" font-family="Verdana" font-size="12">1,1</text>
	<text x="218" y="272.37" fill="#000000" font-family="Verdana" font-size="12">1,1</text>
</g>

<!-- Association APPARTENIR -->
<g class="page_0_94c8502b diagram_page" visibility="visible">
	<line x1="170" y1="473" x2="292" y2="473" stroke="#000000" stroke-width="1"/>
	<line x1="292" y1="360" x2="292" y2="473" stroke="#000000" stroke-width="1"/>
	<g>
		<path d="M325 447 a14 14 90 0 1 14 14 V473 h-94 V461 a14 14 90 0 1 14 -14" fill="#FFFFFF" stroke="#FFFFFF" stroke-width="0"/>
		<path d="M339 473 v12 a14 14 90 0 1 -14 14 H259 a14 14 90 0 1 -14 -14 V473 H94" fill="#FFFFFF" stroke="#FFFFFF" stroke-width="0"/>
		<rect x="245" y="447" width="94" height="52" fill="none" rx="14" stroke="#000000" stroke-width="1.5"/>
		<line x1="245" y1="473" x2="339" y2="473" stroke="#000000" stroke-width="1"/>
		<text x="252" y="465.6" fill="#000000" font-family="Trebuchet MS" font-size="14">APPARTENIR</text>
	</g>
	<text x="218" y="490" fill="#000000" font-family="Verdana" font-size="12">1,1</text>
	<text x="297" y="412" fill="#000000" font-family="Verdana" font-size="12">1,N</text>
</g>

<!-- Association ECRIRE -->
<g class="page_0_94c8502b diagram_page" visibility="visible">
	<line x1="292" y1="80" x2="419" y2="473" stroke="#000000" stroke-width="1"/>
	<line x1="170" y1="473" x2="419" y2="473" stroke="#000000" stroke-width="1"/>
	<g>
		<path d="M435 447 a14 14 90 0 1 14 14 V473 h-60 V461 a14 14 90 0 1 14 -14" fill="#FFFFFF" stroke="#FFFFFF" stroke-width="0"/>
		<path d="M449 473 v12 a14 14 90 0 1 -14 14 H403 a14 14 90 0 1 -14 -14 V473 H60" fill="#FFFFFF" stroke="#FFFFFF" stroke-width="0"/>
		<rect x="389" y="447" width="60" height="52" fill="none" rx="14" stroke="#000000" stroke-width="1.5"/>
		<line x1="389" y1="473" x2="449" y2="473" stroke="#000000" stroke-width="1"/>
		<text x="396" y="465.6" fill="#000000" font-family="Trebuchet MS" font-size="14">ECRIRE</text>
	</g>
	<text x="290.46" y="168" fill="#000000" font-family="Verdana" font-size="12">0,N</text>
	<text x="218" y="490" fill="#000000" font-family="Verdana" font-size="12">1,1</text>
</g>

<!-- Entity ROLE -->
<g class="page_0_94c8502b diagram_page" visibility="visible">
	<g>
		<rect x="142" y="45" width="56" height="26" fill="#FFFFFF" stroke="none" stroke-width="0" opacity="1"/>
		<rect x="142" y="71" width="56" height="44" fill="#FFFFFF" stroke="none" stroke-width="0" opacity="1"/>
		<rect x="142" y="45" width="56" height="70" fill="none" stroke="#000000" stroke-width="1.5" opacity="1"/>
		<line x1="142" y1="71" x2="198" y2="71" stroke="#000000" stroke-width="1"/>
	</g>
	<text x="153" y="63.6" fill="#000000" font-family="Trebuchet MS" font-size="14">ROLE</text>
	<text x="147" y="89.6" fill="#000000" font-family="Trebuchet MS" font-size="14">id_role</text>
	<line x1="147" y1="92" x2="193" y2="92" stroke="#000000" stroke-width="1"/>
	<text x="147" y="107.6" fill="#000000" font-family="Trebuchet MS" font-size="14">name</text>
</g>

<!-- Entity USERS -->
<g class="page_0_94c8502b diagram_page" visibility="visible">
	<g>
		<rect x="251" y="9" width="82" height="26" fill="#FFFFFF" stroke="none" stroke-width="0" opacity="1"/>
		<rect x="251" y="35" width="82" height="116" fill="#FFFFFF" stroke="none" stroke-width="0" opacity="1"/>
		<rect x="251" y="9" width="82" height="142" fill="none" stroke="#000000" stroke-width="1.5" opacity="1"/>
		<line x1="251" y1="35" x2="333" y2="35" stroke="#000000" stroke-width="1"/>
	</g>
	<text x="272" y="27.6" fill="#000000" font-family="Trebuchet MS" font-size="14">USERS</text>
	<text x="256" y="53.6" fill="#000000" font-family="Trebuchet MS" font-size="14">id_user</text>
	<line x1="256" y1="56" x2="304" y2="56" stroke="#000000" stroke-width="1"/>
	<text x="256" y="71.6" fill="#000000" font-family="Trebuchet MS" font-size="14">first_name</text>
	<text x="256" y="89.6" fill="#000000" font-family="Trebuchet MS" font-size="14">last_name</text>
	<text x="256" y="107.6" fill="#000000" font-family="Trebuchet MS" font-size="14">email</text>
	<text x="256" y="125.6" fill="#000000" font-family="Trebuchet MS" font-size="14">password</text>
	<text x="256" y="143.6" fill="#000000" font-family="Trebuchet MS" font-size="14">created_at</text>
</g>

<!-- Entity CATEGORY -->
<g class="page_0_94c8502b diagram_page" visibility="visible">
	<g>
		<rect x="9" y="185" width="86" height="26" fill="#FFFFFF" stroke="none" stroke-width="0" opacity="1"/>
		<rect x="9" y="211" width="86" height="44" fill="#FFFFFF" stroke="none" stroke-width="0" opacity="1"/>
		<rect x="9" y="185" width="86" height="70" fill="none" stroke="#000000" stroke-width="1.5" opacity="1"/>
		<line x1="9" y1="211" x2="95" y2="211" stroke="#000000" stroke-width="1"/>
	</g>
	<text x="17" y="203.6" fill="#000000" font-family="Trebuchet MS" font-size="14">CATEGORY</text>
	<text x="14" y="229.6" fill="#000000" font-family="Trebuchet MS" font-size="14">id_category</text>
	<line x1="14" y1="232" x2="90" y2="232" stroke="#000000" stroke-width="1"/>
	<text x="14" y="247.6" fill="#000000" font-family="Trebuchet MS" font-size="14">name</text>
</g>

<!-- Entity TICKET -->
<g class="page_0_94c8502b diagram_page" visibility="visible">
	<g>
		<rect x="127" y="140" width="86" height="26" fill="#FFFFFF" stroke="none" stroke-width="0" opacity="1"/>
		<rect x="127" y="166" width="86" height="134" fill="#FFFFFF" stroke="none" stroke-width="0" opacity="1"/>
		<rect x="127" y="140" width="86" height="160" fill="none" stroke="#000000" stroke-width="1.5" opacity="1"/>
		<line x1="127" y1="166" x2="213" y2="166" stroke="#000000" stroke-width="1"/>
	</g>
	<text x="147" y="158.6" fill="#000000" font-family="Trebuchet MS" font-size="14">TICKET</text>
	<text x="132" y="184.6" fill="#000000" font-family="Trebuchet MS" font-size="14">id_ticket</text>
	<line x1="132" y1="187" x2="190" y2="187" stroke="#000000" stroke-width="1"/>
	<text x="132" y="202.6" fill="#000000" font-family="Trebuchet MS" font-size="14">title</text>
	<text x="132" y="220.6" fill="#000000" font-family="Trebuchet MS" font-size="14">description</text>
	<text x="132" y="238.6" fill="#000000" font-family="Trebuchet MS" font-size="14">status</text>
	<text x="132" y="256.6" fill="#000000" font-family="Trebuchet MS" font-size="14">priority</text>
	<text x="132" y="274.6" fill="#000000" font-family="Trebuchet MS" font-size="14">created_at</text>
	<text x="132" y="292.6" fill="#000000" font-family="Trebuchet MS" font-size="14">updated_at</text>
</g>

<!-- Entity CONVERSATION -->
<g class="page_0_94c8502b diagram_page" visibility="visible">
	<g>
		<rect x="236" y="325" width="112" height="26" fill="#FFFFFF" stroke="none" stroke-width="0" opacity="1"/>
		<rect x="236" y="351" width="112" height="44" fill="#FFFFFF" stroke="none" stroke-width="0" opacity="1"/>
		<rect x="236" y="325" width="112" height="70" fill="none" stroke="#000000" stroke-width="1.5" opacity="1"/>
		<line x1="236" y1="351" x2="348" y2="351" stroke="#000000" stroke-width="1"/>
	</g>
	<text x="243" y="343.6" fill="#000000" font-family="Trebuchet MS" font-size="14">CONVERSATION</text>
	<text x="241" y="369.6" fill="#000000" font-family="Trebuchet MS" font-size="14">id_conversation</text>
	<line x1="241" y1="372" x2="343" y2="372" stroke="#000000" stroke-width="1"/>
	<text x="241" y="387.6" fill="#000000" font-family="Trebuchet MS" font-size="14">created_at</text>
</g>

<!-- Entity MESSAGE -->
<g class="page_0_94c8502b diagram_page" visibility="visible">
	<g>
		<rect x="127" y="420" width="86" height="26" fill="#FFFFFF" stroke="none" stroke-width="0" opacity="1"/>
		<rect x="127" y="446" width="86" height="80" fill="#FFFFFF" stroke="none" stroke-width="0" opacity="1"/>
		<rect x="127" y="420" width="86" height="106" fill="none" stroke="#000000" stroke-width="1.5" opacity="1"/>
		<line x1="127" y1="446" x2="213" y2="446" stroke="#000000" stroke-width="1"/>
	</g>
	<text x="141" y="438.6" fill="#000000" font-family="Trebuchet MS" font-size="14">MESSAGE</text>
	<text x="132" y="464.6" fill="#000000" font-family="Trebuchet MS" font-size="14">id_message</text>
	<line x1="132" y1="467" x2="207" y2="467" stroke="#000000" stroke-width="1"/>
	<text x="132" y="482.6" fill="#000000" font-family="Trebuchet MS" font-size="14">content</text>
	<text x="132" y="500.6" fill="#000000" font-family="Trebuchet MS" font-size="14">created_at</text>
	<text x="132" y="518.6" fill="#000000" font-family="Trebuchet MS" font-size="14">updated_at</text>
</g>

<!-- Notes -->
<script type="text/ecmascript">
<![CDATA[
	function show_94c8502b(evt, text) {
		var pos = (evt.target.getAttribute("y") < 490) ? "bottom" : "top";
		var note = document.getElementById(pos + "_note_94c8502b");
		note.textContent = text;
		note.setAttributeNS(null, "visibility", "visible");
		document.getElementById(pos + "_overlay_94c8502b").setAttributeNS(null, "visibility", "visible");
	}
	function hide_94c8502b(evt) {
		document.getElementById("top_note_94c8502b").setAttributeNS(null, "visibility", "hidden");
		document.getElementById("top_overlay_94c8502b").setAttributeNS(null, "visibility", "hidden");
		document.getElementById("bottom_note_94c8502b").setAttributeNS(null, "visibility", "hidden");
		document.getElementById("bottom_overlay_94c8502b").setAttributeNS(null, "visibility", "hidden");
	}
]]>
</script>
<rect id="top_overlay_94c8502b" x="0" y="0" width="100%" height="40" fill="#000000" stroke-width="0" opacity="0.7" visibility="hidden"/>
<text id="top_note_94c8502b" text-anchor="middle" x="342" y="24" fill="#FFFFFF" font-family="Trebuchet MS" font-size="14" visibility="hidden"></text>
<rect id="bottom_overlay_94c8502b" x="0" y="495" width="100%" height="40" fill="#000000" stroke-width="0" opacity="0.7" visibility="hidden"/>
<text id="bottom_note_94c8502b" text-anchor="middle" x="342" y="519" fill="#FFFFFF" font-family="Trebuchet MS" font-size="14" visibility="hidden"></text>
</svg>