<?xml version="1.0" encoding="utf-8"?>
<!-- Generated by Mocodo 4.3.3 -->
<svg width="614" height="508" viewBox="0 0 614 508" xmlns="http://www.w3.org/2000/svg">
<rect x="0" y="0" width="614" height="508" fill="#FFFFFF" stroke="none" stroke-width="0"/>

<!-- Association CONCERNER -->
<g>
	<line x1="55" y1="220" x2="55" y2="89" stroke="#000000" stroke-width="1"/>
	<line x1="176" y1="89" x2="55" y2="89" stroke="#000000" stroke-width="1"/>
	<g>
		<path d="M87 63 a14 14 90 0 1 14 14 V89 h-92 V77 a14 14 90 0 1 14 -14" fill="#FFFFFF" stroke="#FFFFFF" stroke-width="0"/>
		<path d="M101 89 v12 a14 14 90 0 1 -14 14 H23 a14 14 90 0 1 -14 -14 V89 H92" fill="#FFFFFF" stroke="#FFFFFF" stroke-width="0"/>
		<rect x="9" y="63" width="92" height="52" fill="none" rx="14" stroke="#000000" stroke-width="1.5"/>
		<line x1="9" y1="89" x2="101" y2="89" stroke="#000000" stroke-width="1"/>
		<text x="16" y="81.6" fill="#000000" font-family="Trebuchet MS" font-size="14">CONCERNER</text>
	</g>
	<text x="60" y="177" fill="#000000" font-family="Verdana" font-size="12">0,N</text>
	<text x="107" y="106" fill="#000000" font-family="Verdana" font-size="12">1,1</text>
</g>

<!-- Association DISCUTER -->
<g>
	<line x1="423" y1="89" x2="296" y2="89" stroke="#000000" stroke-width="1"/>
	<line x1="176" y1="89" x2="296" y2="89" stroke="#000000" stroke-width="1"/>
	<g>
		<path d="M321 63 a14 14 90 0 1 14 14 V89 h-78 V77 a14 14 90 0 1 14 -14" fill="#FFFFFF" stroke="#FFFFFF" stroke-width="0"/>
		<path d="M335 89 v12 a14 14 90 0 1 -14 14 H271 a14 14 90 0 1 -14 -14 V89 H78" fill="#FFFFFF" stroke="#FFFFFF" stroke-width="0"/>
		<rect x="257" y="63" width="78" height="52" fill="none" rx="14" stroke="#000000" stroke-width="1.5"/>
		<line x1="257" y1="89" x2="335" y2="89" stroke="#000000" stroke-width="1"/>
		<text x="265" y="81.6" fill="#000000" font-family="Trebuchet MS" font-size="14">DISCUTER</text>
	</g>
	<text x="341" y="106" fill="#000000" font-family="Verdana" font-size="12">1,1</text>
	<text x="224" y="81" fill="#000000" font-family="Verdana" font-size="12">1,1</text>
</g>

<!-- Association APPARTENIR -->
<g>
	<line x1="558" y1="220" x2="558" y2="89" stroke="#000000" stroke-width="1"/>
	<line x1="423" y1="89" x2="558" y2="89" stroke="#000000" stroke-width="1"/>
	<g>
		<path d="M591 63 a14 14 90 0 1 14 14 V89 h-94 V77 a14 14 90 0 1 14 -14" fill="#FFFFFF" stroke="#FFFFFF" stroke-width="0"/>
		<path d="M605 89 v12 a14 14 90 0 1 -14 14 H525 a14 14 90 0 1 -14 -14 V89 H94" fill="#FFFFFF" stroke="#FFFFFF" stroke-width="0"/>
		<rect x="511" y="63" width="94" height="52" fill="none" rx="14" stroke="#000000" stroke-width="1.5"/>
		<line x1="511" y1="89" x2="605" y2="89" stroke="#000000" stroke-width="1"/>
		<text x="518" y="81.6" fill="#000000" font-family="Trebuchet MS" font-size="14">APPARTENIR</text>
	</g>
	<text x="563" y="159" fill="#000000" font-family="Verdana" font-size="12">1,1</text>
	<text x="484" y="106" fill="#000000" font-family="Verdana" font-size="12">1,N</text>
</g>

<!-- Association TRAITER -->
<g>
	<line x1="296" y1="342" x2="176" y2="220" stroke="#000000" stroke-width="1"/>
	<line x1="176" y1="89" x2="176" y2="220" stroke="#000000" stroke-width="1"/>
	<g>
		<path d="M197 194 a14 14 90 0 1 14 14 V220 h-70 V208 a14 14 90 0 1 14 -14" fill="#FFFFFF" stroke="#FFFFFF" stroke-width="0"/>
		<path d="M211 220 v12 a14 14 90 0 1 -14 14 H155 a14 14 90 0 1 -14 -14 V220 H70" fill="#FFFFFF" stroke="#FFFFFF" stroke-width="0"/>
		<rect x="141" y="194" width="70" height="52" fill="none" rx="14" stroke="#000000" stroke-width="1.5"/>
		<line x1="141" y1="220" x2="211" y2="220" stroke="#000000" stroke-width="1"/>
		<text x="149" y="212.6" fill="#000000" font-family="Trebuchet MS" font-size="14">TRAITER</text>
	</g>
	<text x="228" y="310.33" fill="#000000" font-family="Verdana" font-size="12">0,N</text>
	<text x="150" y="186" fill="#000000" font-family="Verdana" font-size="12">0,1</text>
</g>

<!-- Association CREER -->
<g>
	<line x1="296" y1="342" x2="296" y2="220" stroke="#000000" stroke-width="1"/>
	<line x1="176" y1="89" x2="296" y2="220" stroke="#000000" stroke-width="1"/>
	<g>
		<path d="M310 194 a14 14 90 0 1 14 14 V220 h-56 V208 a14 14 90 0 1 14 -14" fill="#FFFFFF" stroke="#FFFFFF" stroke-width="0"/>
		<path d="M324 220 v12 a14 14 90 0 1 -14 14 H282 a14 14 90 0 1 -14 -14 V220 H56" fill="#FFFFFF" stroke="#FFFFFF" stroke-width="0"/>
		<rect x="268" y="194" width="56" height="52" fill="none" rx="14" stroke="#000000" stroke-width="1.5"/>
		<line x1="268" y1="220" x2="324" y2="220" stroke="#000000" stroke-width="1"/>
		<text x="275" y="212.6" fill="#000000" font-family="Trebuchet MS" font-size="14">CREER</text>
	</g>
	<text x="301" y="263" fill="#000000" font-family="Verdana" font-size="12">0,N</text>
	<text x="224" y="134.57" fill="#000000" font-family="Verdana" font-size="12">1,1</text>
</g>

<!-- Association ECRIRE -->
<g>
	<line x1="296" y1="342" x2="423" y2="220" stroke="#000000" stroke-width="1"/>
	<line x1="558" y1="220" x2="423" y2="220" stroke="#000000" stroke-width="1"/>
	<g>
		<path d="M439 194 a14 14 90 0 1 14 14 V220 h-60 V208 a14 14 90 0 1 14 -14" fill="#FFFFFF" stroke="#FFFFFF" stroke-width="0"/>
		<path d="M453 220 v12 a14 14 90 0 1 -14 14 H407 a14 14 90 0 1 -14 -14 V220 H60" fill="#FFFFFF" stroke="#FFFFFF" stroke-width="0"/>
		<rect x="393" y="194" width="60" height="52" fill="none" rx="14" stroke="#000000" stroke-width="1.5"/>
		<line x1="393" y1="220" x2="453" y2="220" stroke="#000000" stroke-width="1"/>
		<text x="400" y="212.6" fill="#000000" font-family="Trebuchet MS" font-size="14">ECRIRE</text>
	</g>
	<text x="342" y="312.74" fill="#000000" font-family="Verdana" font-size="12">0,N</text>
	<text x="489" y="237" fill="#000000" font-family="Verdana" font-size="12">1,1</text>
</g>

<!-- Association SPECIALISER -->
<g>
	<line x1="296" y1="342" x2="176" y2="342" stroke="#000000" stroke-width="1"/>
	<line x1="55" y1="220" x2="176" y2="342" stroke="#000000" stroke-width="1"/>
	<g>
		<path d="M209 316 a14 14 90 0 1 14 14 V342 h-94 V330 a14 14 90 0 1 14 -14" fill="#FFFFFF" stroke="#FFFFFF" stroke-width="0"/>
		<path d="M223 342 v12 a14 14 90 0 1 -14 14 H143 a14 14 90 0 1 -14 -14 V342 H94" fill="#FFFFFF" stroke="#FFFFFF" stroke-width="0"/>
		<rect x="129" y="316" width="94" height="52" fill="none" rx="14" stroke="#000000" stroke-width="1.5"/>
		<line x1="129" y1="342" x2="223" y2="342" stroke="#000000" stroke-width="1"/>
		<text x="137" y="334.6" fill="#000000" font-family="Trebuchet MS" font-size="14">SPECIALISER</text>
	</g>
	<text x="228" y="359" fill="#000000" font-family="Verdana" font-size="12">0,N</text>
	<text x="69.74" y="272" fill="#000000" font-family="Verdana" font-size="12">0,N</text>
</g>

<!-- Association AVOIR -->
<g>
	<line x1="296" y1="342" x2="296" y2="464" stroke="#000000" stroke-width="1"/>
	<line x1="423" y1="464" x2="296" y2="464" stroke="#000000" stroke-width="1"/>
	<g>
		<path d="M309 438 a14 14 90 0 1 14 14 V464 h-54 V452 a14 14 90 0 1 14 -14" fill="#FFFFFF" stroke="#FFFFFF" stroke-width="0"/>
		<path d="M323 464 v12 a14 14 90 0 1 -14 14 H283 a14 14 90 0 1 -14 -14 V464 H54" fill="#FFFFFF" stroke="#FFFFFF" stroke-width="0"/>
		<rect x="269" y="438" width="54" height="52" fill="none" rx="14" stroke="#000000" stroke-width="1.5"/>
		<line x1="269" y1="464" x2="323" y2="464" stroke="#000000" stroke-width="1"/>
		<text x="276" y="456.6" fill="#000000" font-family="Trebuchet MS" font-size="14">AVOIR</text>
	</g>
	<text x="301" y="430" fill="#000000" font-family="Verdana" font-size="12">1,1</text>
	<text x="368" y="481" fill="#000000" font-family="Verdana" font-size="12">0,N</text>
</g>

<!-- Entity TICKET -->
<g>
	<g>
		<rect x="133" y="9" width="86" height="26" fill="#FFFFFF" stroke="none" stroke-width="0" opacity="1"/>
		<rect x="133" y="35" width="86" height="134" fill="#FFFFFF" stroke="none" stroke-width="0" opacity="1"/>
		<rect x="133" y="9" width="86" height="160" fill="none" stroke="#000000" stroke-width="1.5" opacity="1"/>
		<line x1="133" y1="35" x2="219" y2="35" stroke="#000000" stroke-width="1"/>
	</g>
	<text x="153" y="27.6" fill="#000000" font-family="Trebuchet MS" font-size="14">TICKET</text>
	<text x="138" y="53.6" fill="#000000" font-family="Trebuchet MS" font-size="14">id_ticket</text>
	<line x1="138" y1="56" x2="196" y2="56" stroke="#000000" stroke-width="1"/>
	<text x="138" y="71.6" fill="#000000" font-family="Trebuchet MS" font-size="14">title</text>
	<text x="138" y="89.6" fill="#000000" font-family="Trebuchet MS" font-size="14">description</text>
	<text x="138" y="107.6" fill="#000000" font-family="Trebuchet MS" font-size="14">status</text>
	<text x="138" y="125.6" fill="#000000" font-family="Trebuchet MS" font-size="14">priority</text>
	<text x="138" y="143.6" fill="#000000" font-family="Trebuchet MS" font-size="14">created_at</text>
	<text x="138" y="161.6" fill="#000000" font-family="Trebuchet MS" font-size="14">updated_at</text>
</g>

<!-- Entity CONVERSATION -->
<g>
	<g>
		<rect x="367" y="54" width="112" height="26" fill="#FFFFFF" stroke="none" stroke-width="0" opacity="1"/>
		<rect x="367" y="80" width="112" height="44" fill="#FFFFFF" stroke="none" stroke-width="0" opacity="1"/>
		<rect x="367" y="54" width="112" height="70" fill="none" stroke="#000000" stroke-width="1.5" opacity="1"/>
		<line x1="367" y1="80" x2="479" y2="80" stroke="#000000" stroke-width="1"/>
	</g>
	<text x="374" y="72.6" fill="#000000" font-family="Trebuchet MS" font-size="14">CONVERSATION</text>
	<text x="372" y="98.6" fill="#000000" font-family="Trebuchet MS" font-size="14">id_conversation</text>
	<line x1="372" y1="101" x2="474" y2="101" stroke="#000000" stroke-width="1"/>
	<text x="372" y="116.6" fill="#000000" font-family="Trebuchet MS" font-size="14">created_at</text>
</g>

<!-- Entity CATEGORY -->
<g>
	<g>
		<rect x="12" y="185" width="86" height="26" fill="#FFFFFF" stroke="none" stroke-width="0" opacity="1"/>
		<rect x="12" y="211" width="86" height="44" fill="#FFFFFF" stroke="none" stroke-width="0" opacity="1"/>
		<rect x="12" y="185" width="86" height="70" fill="none" stroke="#000000" stroke-width="1.5" opacity="1"/>
		<line x1="12" y1="211" x2="98" y2="211" stroke="#000000" stroke-width="1"/>
	</g>
	<text x="20" y="203.6" fill="#000000" font-family="Trebuchet MS" font-size="14">CATEGORY</text>
	<text x="17" y="229.6" fill="#000000" font-family="Trebuchet MS" font-size="14">id_category</text>
	<line x1="17" y1="232" x2="93" y2="232" stroke="#000000" stroke-width="1"/>
	<text x="17" y="247.6" fill="#000000" font-family="Trebuchet MS" font-size="14">name</text>
</g>

<!-- Entity MESSAGE -->
<g>
	<g>
		<rect x="515" y="167" width="86" height="26" fill="#FFFFFF" stroke="none" stroke-width="0" opacity="1"/>
		<rect x="515" y="193" width="86" height="80" fill="#FFFFFF" stroke="none" stroke-width="0" opacity="1"/>
		<rect x="515" y="167" width="86" height="106" fill="none" stroke="#000000" stroke-width="1.5" opacity="1"/>
		<line x1="515" y1="193" x2="601" y2="193" stroke="#000000" stroke-width="1"/>
	</g>
	<text x="529" y="185.6" fill="#000000" font-family="Trebuchet MS" font-size="14">MESSAGE</text>
	<text x="520" y="211.6" fill="#000000" font-family="Trebuchet MS" font-size="14">id_message</text>
	<line x1="520" y1="214" x2="595" y2="214" stroke="#000000" stroke-width="1"/>
	<text x="520" y="229.6" fill="#000000" font-family="Trebuchet MS" font-size="14">content</text>
	<text x="520" y="247.6" fill="#000000" font-family="Trebuchet MS" font-size="14">created_at</text>
	<text x="520" y="265.6" fill="#000000" font-family="Trebuchet MS" font-size="14">updated_at</text>
</g>

<!-- Entity USERS -->
<g>
	<g>
		<rect x="255" y="271" width="82" height="26" fill="#FFFFFF" stroke="none" stroke-width="0" opacity="1"/>
		<rect x="255" y="297" width="82" height="116" fill="#FFFFFF" stroke="none" stroke-width="0" opacity="1"/>
		<rect x="255" y="271" width="82" height="142" fill="none" stroke="#000000" stroke-width="1.5" opacity="1"/>
		<line x1="255" y1="297" x2="337" y2="297" stroke="#000000" stroke-width="1"/>
	</g>
	<text x="276" y="289.6" fill="#000000" font-family="Trebuchet MS" font-size="14">USERS</text>
	<text x="260" y="315.6" fill="#000000" font-family="Trebuchet MS" font-size="14">id_user</text>
	<line x1="260" y1="318" x2="308" y2="318" stroke="#000000" stroke-width="1"/>
	<text x="260" y="333.6" fill="#000000" font-family="Trebuchet MS" font-size="14">first_name</text>
	<text x="260" y="351.6" fill="#000000" font-family="Trebuchet MS" font-size="14">last_name</text>
	<text x="260" y="369.6" fill="#000000" font-family="Trebuchet MS" font-size="14">email</text>
	<text x="260" y="387.6" fill="#000000" font-family="Trebuchet MS" font-size="14">password</text>
	<text x="260" y="405.6" fill="#000000" font-family="Trebuchet MS" font-size="14">created_at</text>
</g>

<!-- Entity ROLE -->
<g>
	<g>
		<rect x="395" y="429" width="56" height="26" fill="#FFFFFF" stroke="none" stroke-width="0" opacity="1"/>
		<rect x="395" y="455" width="56" height="44" fill="#FFFFFF" stroke="none" stroke-width="0" opacity="1"/>
		<rect x="395" y="429" width="56" height="70" fill="none" stroke="#000000" stroke-width="1.5" opacity="1"/>
		<line x1="395" y1="455" x2="451" y2="455" stroke="#000000" stroke-width="1"/>
	</g>
	<text x="406" y="447.6" fill="#000000" font-family="Trebuchet MS" font-size="14">ROLE</text>
	<text x="400" y="473.6" fill="#000000" font-family="Trebuchet MS" font-size="14">id_role</text>
	<line x1="400" y1="476" x2="446" y2="476" stroke="#000000" stroke-width="1"/>
	<text x="400" y="491.6" fill="#000000" font-family="Trebuchet MS" font-size="14">name</text>
</g>
</svg>